<svg height="48pt" viewBox="0 0 48 48" width="48pt" xmlns="http://www.w3.org/2000/svg" xmlns:xlink="http://www.w3.org/1999/xlink"><linearGradient id="a"><stop offset="0" stop-color="#1a6cff"/><stop offset="1" stop-color="#c522ff"/></linearGradient><linearGradient id="b" gradientTransform="matrix(34.351 0 0 32.001 7.649 1.17)" gradientUnits="userSpaceOnUse" x1=".67181" x2=".476008" xlink:href="#a" y1=".02057" y2="1.381352"/><linearGradient id="c" gradientTransform="matrix(44.849 0 0 31.12 2.15 14.37)" gradientUnits="userSpaceOnUse" x1=".693438" x2=".422149" xlink:href="#a" y1="-.397491" y2=".960165"/><path d="m11.76 29.13 1.12-.8c.01 0 .01-.01.02-.01 1.08-.75 2.14-1.52 3.18-2.32.96-.74 1.86-1.54 2.7-2.41.85-.89 1.61-1.87 2.26-2.92.76-1.25 1.39-2.58 1.88-3.96.64-1.8 1.23-3.61 1.75-5.45.35-1.23.67-2.46.96-3.71.14-.6.29-1.2.45-1.8.15-.55.32-1.1.53-1.63.23-.56.58-1.06 1.03-1.47.4-.36.86-.66 1.35-.88.94-.41 1.95-.61 2.98-.6 1.03-.01 2.05.2 3 .6 1.07.45 1.97 1.24 2.55 2.24.79 1.42 1.45 2.92 1.95 4.47.32 1.02.58 2.05.8 3.1.28 1.37.52 2.75.71 4.14l1.02 5.28-4.39-2-.59-2.72c-.18-1.31-.41-2.61-.67-3.9-.19-.91-.42-1.81-.69-2.69-.42-1.28-.96-2.52-1.62-3.69-.14-.25-.36-.44-.62-.54-.46-.2-.96-.3-1.46-.29-.47-.01-.93.08-1.35.26-.11.05-.2.11-.28.19-.01 0-.01 0-.01 0-.15.38-.27.77-.37 1.16-.15.56-.29 1.12-.43 1.69-.3 1.3-.64 2.59-1 3.88-.54 1.92-1.16 3.82-1.84 5.7-.57 1.64-1.32 3.22-2.23 4.71-.8 1.3-1.73 2.5-2.79 3.6-.98 1.01-2.03 1.95-3.14 2.81-1.09.84-2.2 1.65-3.33 2.43l-1.22.86c-.02.01-.03.02-.05.03-.69.46-1.5.7-2.32.68-.42 0-.84-.07-1.23-.2-.31-.12-.6-.29-.86-.51-.17-.13-.34-.28-.5-.43-.42-.39-.83-.78-1.24-1.19-.73-.71 2.04-3.59 2.8-2.85.38.38.77.75 1.16 1.11.01.01.02.02.03.03z" fill="url(#b)"/><path d="m40.345 28.651c-.164-.064-.329-.125-.495-.181-.72-.24-1.47-.37-2.24-.37-1.64 0-3.23.59-4.48 1.66-.18.17-.36.35-.52.55-.16.19-.32.39-.47.59-.42.55-.84 1.1-1.25 1.66-.75 1.01-1.5 2.01-2.27 3.01-.81 1.05-1.66 2.08-2.55 3.08-.7.83-1.48 1.58-2.32 2.27-.12.1-.24.18-.36.27-.26-.94-.57-1.86-.93-2.77-.43-1.04-.92-2.06-1.49-3.04-.59-1.03-1.26-2.03-1.99-2.97-.79-1.02-1.65-1.99-2.56-2.91l-1.41-1.41-2.83 2.82 1.41 1.42c.79.8 1.54 1.64 2.23 2.53.62.8 1.18 1.64 1.69 2.52.47.82.89 1.67 1.24 2.55.34.84.63 1.71.85 2.59.15.74.51 1.43 1.02 2 .6.63 1.44.98 2.32.97.65-.03 1.29-.2 1.86-.5.53-.27 1.02-.6 1.48-.97 1.01-.83 1.95-1.75 2.81-2.74.93-1.06 1.83-2.15 2.7-3.27.78-1.02 1.56-2.04 2.32-3.08.4-.53.8-1.07 1.2-1.59.13-.17.27-.34.4-.5.02-.03.05-.06.07-.08.51-.43 1.16-.66 1.82-.66.33 0 .66.06.97.16.45.16.88.38 1.27.66.59.42 1.12.92 1.6 1.47.68.8 1.3 1.67 1.84 2.58.557.949 1.783 1.265 2.735.705.952-.56 1.268-1.786.705-2.735-.127-.217-.258-.432-.391-.646-1.104-2.954-2.103-6.558-2.989-9.354-.5-1.55-.95-3.11-1.37-4.69-.34-1.29-.63-2.59-.86-3.91l-1.11-1.97-2.83.567v2.083c.214 1.424.514 2.824.94 4.26.43 1.63.9 3.26 1.42 4.87.265.836.54 1.669.815 2.501zm-30.955-1.621 2.61 1.97-3.53 2.41-1.57-1.24-3.67-2.91c-.67-.5-1.08-1.29-1.08-2.13.03-1.04.69-1.97 1.66-2.35l10.29-4.58c1.004-.453 2.185 0 2.635 1.01.45 1.01-.005 2.193-1.015 2.64l-7.327 3.263c-.504.225-.561.685-.129 1.027z" fill="url(#c)" fill-rule="evenodd"/></svg>